HIERARCHY
ROOT Hips
{
	OFFSET 0.000000 0.000000 0.000000
	CHANNELS 6 Xposition Yposition Zposition Zrotation Xrotation Yrotation
	JOINT RightUpLeg
	{
		OFFSET -10.032200 0.000000 0.000000
		CHANNELS 3 Zrotation Xrotation Yrotation
		JOINT RightLeg
		{
			OFFSET 0.000000 -40.977000 0.000000
			CHANNELS 3 Zrotation Xrotation Yrotation
			JOINT RightFoot
			{
				OFFSET 0.000000 -38.933200 0.000000
				CHANNELS 3 Zrotation Xrotation Yrotation
				JOINT RightToe
				{
					OFFSET 0.000000 -1.977400 9.184000
					CHANNELS 3 Zrotation Xrotation Yrotation
					JOINT RightToeEnd
					{
						OFFSET 0.000000 2.335600 6.099100
						CHANNELS 3 Zrotation Xrotation Yrotation
						End Site
						{
						    OFFSET 0.000000 1.788000 4.669400
						}
					}
				}
			}
		}
	}
	JOINT LeftUpLeg
	{
		OFFSET 10.032200 0.000000 0.000000
		CHANNELS 3 Zrotation Xrotation Yrotation
		JOINT LeftLeg
		{
			OFFSET 0.000000 -40.977000 0.000000
			CHANNELS 3 Zrotation Xrotation Yrotation
			JOINT LeftFoot
			{
				OFFSET 0.000000 -38.933200 0.000000
				CHANNELS 3 Zrotation Xrotation Yrotation
				JOINT LeftToe
				{
					OFFSET 0.000000 -1.977400 9.184000
					CHANNELS 3 Zrotation Xrotation Yrotation
					JOINT LeftToeEnd
					{
						OFFSET 0.000000 2.335600 6.099100
						CHANNELS 3 Zrotation Xrotation Yrotation
						End Site
						{
						    OFFSET 0.000000 1.788000 4.669400
						}
					}
				}
			}
		}
	}
	JOINT Spine
	{
		OFFSET 0.000000 16.960900 0.000000
		CHANNELS 3 Zrotation Xrotation Yrotation
		JOINT Spine1
		{
			OFFSET 0.000000 13.413900 0.000000
			CHANNELS 3 Zrotation Xrotation Yrotation
			JOINT Spine2
			{
				OFFSET 0.000000 10.384400 0.000000
				CHANNELS 3 Zrotation Xrotation Yrotation
				JOINT LeftShoulder
				{
					OFFSET 2.000000 10.384400 0.000000
					CHANNELS 3 Zrotation Xrotation Yrotation
					JOINT LeftArm
					{
						OFFSET 15.649100 0.000000 0.000000
						CHANNELS 3 Zrotation Xrotation Yrotation
						JOINT LeftForeArm
						{
							OFFSET 0.000000 -26.641600 0.000000
							CHANNELS 3 Zrotation Xrotation Yrotation
							JOINT LeftHand
							{
								OFFSET 0.000000 -23.740600 0.000000
								CHANNELS 3 Zrotation Xrotation Yrotation
								JOINT LeftFinger0
								{
									OFFSET 0.000000 -7.620900 0.000000
									CHANNELS 3 Zrotation Xrotation Yrotation
									End Site
									{
									    OFFSET 0.000000 -5.000000 0.000000
									}
								}
							}
						}
					}
				}
				JOINT RightShoulder
				{
					OFFSET -2.000000 10.384400 0.000000
					CHANNELS 3 Zrotation Xrotation Yrotation
					JOINT RightArm
					{
						OFFSET -15.649100 0.000000 0.000000
						CHANNELS 3 Zrotation Xrotation Yrotation
						JOINT RightForeArm
						{
							OFFSET 0.000000 -26.641600 0.000000
							CHANNELS 3 Zrotation Xrotation Yrotation
							JOINT RightHand
							{
								OFFSET 0.000000 -23.740600 0.000000
								CHANNELS 3 Zrotation Xrotation Yrotation
								JOINT RightFinger0
								{
									OFFSET 0.000000 -7.620900 0.000000
									CHANNELS 3 Zrotation Xrotation Yrotation
									End Site
									{
									    OFFSET 0.000000 -5.000000 0.000000
									}
								}
							}
						}
					}
				}
				JOINT Neck
				{
					OFFSET 0.000000 10.384400 0.000000
					CHANNELS 3 Zrotation Xrotation Yrotation
					JOINT Head
					{
						OFFSET 0.000000 10.146900 0.000000
						CHANNELS 3 Zrotation Xrotation Yrotation
						JOINT HeadTip
						{
							OFFSET 0.000000 10.000000 0.000000
							CHANNELS 3 Zrotation Xrotation Yrotation
							End Site
							{
							    OFFSET 0.000000 5.000000 0.000000
							}
						}
					}
				}
			}
		}
	}
}
MOTION
Frames:	9
Frame Time:	0.033332
-205.548500 86.167000 -36.996500 -0.453668 -1.931871 -1.601227 -4.874108 -2.115059 -26.782404 -0.000000 9.637773 -0.000000 6.809851 14.796841 -0.301477 -0.000000 1.290630 -0.000000 -0.000000 0.000000 0.000000 2.916565 -2.414531 27.580625 -0.000000 10.818511 -0.000000 0.471900 13.940775 -11.176499 -0.000000 -3.052604 -0.000000 -0.000000 0.000000 -0.000000 0.137911 -0.189410 -0.721484 -0.000000 3.844659 0.000000 -0.000000 0.000000 -0.000000 -14.761099 -0.000000 6.269422 55.727705 -8.755495 0.134531 0.000000 -20.018102 -0.000000 3.547278 10.513883 -16.951163 -0.000000 -0.000000 -0.000000 11.438074 0.000000 -2.912174 -58.171706 -9.436069 5.112683 -0.000047 -17.181780 -0.000007 -5.278701 19.539945 33.113601 -0.000000 0.000000 0.000000 -0.000000 0.000000 -0.000000 -1.364881 4.592046 0.735770 -0.000000 -0.000000 -0.000000 
-205.549700 86.160800 -36.993200 -0.450172 -1.947619 -1.631110 -4.882939 -2.110056 -26.758604 -0.000000 9.658070 -0.000000 6.844720 14.760400 -0.287834 0.000000 1.303944 -0.000000 -0.000000 -0.000000 0.000000 2.913110 -2.394274 27.573854 0.000000 10.822698 -0.000000 0.456811 13.929041 -11.148377 -0.000000 -3.055718 -0.000000 -0.000000 0.000000 -0.000000 0.139977 -0.176841 -0.785938 0.000000 3.876905 0.000000 0.000000 0.000000 -0.000000 -15.250020 -0.000000 6.151084 53.856958 -8.172178 -0.744660 -0.000000 -20.387834 0.000000 3.535914 10.514176 -17.084516 0.000000 -0.000000 -0.000000 11.930753 -0.000000 -2.762706 -56.199537 -8.825444 5.637688 -0.000049 -17.842597 -0.000008 -5.362793 19.449042 33.337164 0.000000 -0.000000 -0.000000 0.000000 0.000000 -0.000000 -1.457730 4.411687 0.843338 -0.000000 -0.000000 0.000000 
-205.556400 86.157100 -36.985400 -0.457246 -1.951789 -1.716733 -4.871726 -2.115732 -26.719771 -0.000000 9.660253 -0.000000 6.829989 14.751159 -0.244860 0.000000 1.297641 -0.000000 -0.000000 0.000000 -0.000000 2.926185 -2.379701 27.626992 -0.000000 10.843140 0.000000 0.485195 13.892758 -11.111365 -0.000000 -3.089239 -0.000000 -0.000000 0.000000 0.000000 0.146095 -0.178612 -0.773374 0.000000 3.910083 -0.000000 0.000000 0.000000 -0.000000 -15.525490 0.000000 6.071360 51.894906 -7.590530 -1.951728 0.000000 -20.759077 0.000000 3.777987 10.491699 -17.463023 0.000000 -0.000000 -0.000000 12.359803 -0.000000 -2.561897 -54.142880 -8.115911 5.840707 -0.000050 -18.331146 -0.000008 -5.841532 19.366820 33.470725 -0.000000 0.000000 -0.000000 0.000000 0.000000 -0.000000 -1.525389 4.265394 0.860953 0.000000 0.000000 -0.000000 
-205.566000 86.156800 -36.987100 -0.474995 -1.953032 -1.787696 -4.842494 -2.112998 -26.674897 0.000000 9.627352 -0.000000 6.862649 14.764052 -0.221989 -0.000000 1.331202 -0.000000 0.000000 -0.000000 -0.000000 2.948195 -2.365938 27.666182 0.000000 10.840069 -0.000000 0.484473 13.889373 -11.082813 0.000000 -3.139621 -0.000000 -0.000000 0.000000 0.000000 0.168555 -0.171537 -0.758077 -0.000000 3.956907 0.000000 -0.000000 0.000000 0.000000 -15.802767 0.000000 5.956669 49.886793 -6.943545 -2.208487 0.000000 -21.067856 -0.000000 4.002318 10.478773 -17.450603 0.000000 0.000000 -0.000000 12.825390 -0.000000 -2.397280 -52.205528 -7.553904 6.218216 -0.000051 -18.456608 -0.000008 -5.988921 19.318985 33.168054 0.000000 0.000000 0.000000 -0.000000 0.000000 0.000000 -1.576280 4.142691 0.822967 -0.000000 0.000000 -0.000000 
-205.577200 86.149800 -37.000200 -0.480905 -1.959679 -1.827151 -4.838479 -2.136529 -26.667308 -0.000000 9.663915 -0.000000 6.805483 14.754940 -0.172818 -0.000000 1.310137 -0.000000 -0.000000 0.000000 0.000000 2.966192 -2.378948 27.658770 -0.000000 10.874585 -0.000000 0.473853 13.849091 -11.028398 -0.000000 -3.114759 -0.000000 -0.000000 0.000000 -0.000000 0.166598 -0.130230 -0.788498 0.000000 3.980933 -0.000000 0.000000 0.000000 -0.000000 -16.106156 0.000000 5.819518 48.088579 -6.294798 -2.566680 0.000000 -21.264808 -0.000000 4.070997 10.414500 -17.245530 0.000000 0.000000 -0.000000 13.285328 -0.000000 -2.245731 -50.356383 -7.139528 6.971668 -0.000050 -18.353448 -0.000008 -5.851638 19.406462 33.114362 -0.000000 0.000000 -0.000000 0.000000 0.000000 -0.000000 -1.533313 3.968633 0.902612 0.000000 -0.000000 0.000000 
-205.587700 86.144900 -37.005000 -0.479593 -1.987932 -1.820911 -4.838046 -2.119897 -26.668592 0.000000 9.686680 -0.000000 6.811395 14.736174 -0.174241 0.000000 1.266964 -0.000000 -0.000000 0.000000 -0.000000 2.974157 -2.355436 27.671523 -0.000000 10.876192 -0.000000 0.349694 13.866484 -11.054962 -0.000000 -3.126318 0.000000 -0.000000 0.000000 -0.000000 0.164351 -0.086002 -0.826118 0.000000 4.029847 -0.000000 -0.000000 -0.000000 0.000000 -16.365405 0.000000 5.659106 46.525772 -5.726732 -3.734370 -0.000000 -21.444825 0.000000 4.205867 10.510033 -17.319125 -0.000000 0.000000 0.000000 13.598790 -0.000000 -2.049725 -48.399979 -6.577094 7.539281 -0.000050 -18.310979 -0.000008 -6.118169 19.401293 33.006748 -0.000000 -0.000000 0.000000 -0.000000 -0.000000 0.000000 -1.437217 3.788138 0.984539 -0.000000 0.000000 -0.000000 
-205.603200 86.141900 -37.019200 -0.471021 -1.988074 -1.803759 -4.833916 -2.126349 -26.666185 0.000000 9.687927 0.000000 6.803038 14.716808 -0.188959 -0.000000 1.244945 0.000000 -0.000000 -0.000000 -0.000000 2.978922 -2.372016 27.656151 -0.000000 10.889899 0.000000 0.378048 13.834170 -11.055720 0.000000 -3.067943 -0.000000 -0.000000 0.000000 -0.000000 0.161064 -0.064281 -0.811259 -0.000000 4.066218 0.000000 -0.000000 0.000000 0.000000 -16.588992 0.000000 5.437582 45.020616 -5.180960 -4.601050 0.000000 -21.434803 -0.000000 4.476332 10.507768 -17.435744 -0.000000 0.000000 -0.000000 13.892034 -0.000000 -1.916458 -46.445383 -6.043329 7.703621 -0.000050 -18.161226 -0.000008 -6.315201 19.415043 32.573897 -0.000000 -0.000000 -0.000000 -0.000000 0.000000 0.000000 -1.400032 3.662541 0.928579 -0.000000 0.000000 -0.000000 
-205.615600 86.137000 -37.039900 -0.466943 -1.975785 -1.796877 -4.834150 -2.156603 -26.677498 -0.000000 9.704925 -0.000000 6.788038 14.702309 -0.172550 -0.000000 1.236677 -0.000000 0.000000 0.000000 -0.000000 2.987080 -2.401963 27.645445 -0.000000 10.898126 -0.000000 0.454448 13.860930 -11.055496 -0.000000 -3.161315 0.000000 0.000000 0.000000 -0.000000 0.166663 -0.050942 -0.814277 -0.000000 4.076252 0.000000 -0.000000 0.000000 0.000000 -16.799915 0.000000 5.224830 43.542458 -4.595687 -5.012227 0.000000 -21.396291 -0.000000 4.642578 10.486688 -17.167532 -0.000000 0.000000 -0.000000 14.219764 -0.000000 -1.736880 -44.677376 -5.646554 8.345650 -0.000049 -17.792220 -0.000008 -6.103699 19.518393 32.161311 -0.000000 0.000000 0.000000 -0.000000 0.000000 0.000000 -1.391392 3.587321 0.914907 -0.000000 0.000000 0.000000 
-205.629200 86.132800 -37.061800 -0.467283 -1.967627 -1.806078 -4.823593 -2.184221 -26.641274 0.000000 9.709400 0.000000 6.790895 14.700214 -0.203590 -0.000000 1.206311 -0.000000 -0.000000 0.000000 -0.000000 2.998456 -2.430122 27.660188 -0.000000 10.912720 -0.000000 0.477434 13.845171 -11.053169 -0.000000 -3.150310 -0.000000 -0.000000 -0.000000 -0.000000 0.183181 -0.027688 -0.813276 0.000000 4.092003 -0.000000 0.000000 0.000000 -0.000000 -16.911129 0.000000 5.046190 42.118350 -4.083049 -5.601924 -0.000000 -21.389153 -0.000000 4.550435 10.587664 -17.141555 -0.000000 0.000000 -0.000000 14.417470 0.000000 -1.527262 -42.905181 -5.240385 9.328056 -0.000048 -17.568965 -0.000007 -6.125269 19.543112 32.373060 0.000000 0.000000 0.000000 0.000000 0.000000 -0.000000 -1.406399 3.434455 0.900361 0.000000 -0.000000 -0.000000 
